<?xml version="1.0" encoding="UTF-8" standalone="no"?>
<svg
   xmlns:dc="http://purl.org/dc/elements/1.1/"
   xmlns:cc="http://creativecommons.org/ns#"
   xmlns:rdf="http://www.w3.org/1999/02/22-rdf-syntax-ns#"
   xmlns:svg="http://www.w3.org/2000/svg"
   xmlns="http://www.w3.org/2000/svg"
   version="1.1"
   width="3621.1821"
   height="2249.7"
   viewBox="0 0 3621.1821 2249.6999"
   id="svg25">
  <metadata
     id="metadata31">
    <rdf:RDF>
      <cc:Work
         rdf:about="">
        <dc:format>image/svg+xml</dc:format>
        <dc:type
           rdf:resource="http://purl.org/dc/dcmitype/StillImage" />
        <dc:title></dc:title>
      </cc:Work>
    </rdf:RDF>
  </metadata>
  <defs
     id="defs29" />
  <path
     d="m 401.68473,1844.3141 75.92618,-770.7607 H 675.58697 L 558.33898,2229.6999 H 942.75812 L 1087.8767,786.20063 511.25273,787.16173 559.30017,308.55996 H 76.858287 L 48.978181,593.02993 146.05338,593.99103 22.081115,1844.3141 Z m 1067.72747,-1.9224 106.6763,-1055.22997 h -383.458 L 1085.9543,1844.3141 Z m 725.5914,1.9224 393.0685,-1055.23027 -286.3923,-1.9221 -197.976,551.64187 -92.2601,-550.68087 -381.5365,0.9611 183.5607,1055.23027 z m 444.0037,-1057.15237 -104.7539,1055.22997 958.1636,0.9612 29.7916,-289.2745 h -576.6267 l 48.0529,-479.5638 h 193.1701 l -137.429,385.3804 383.458,0.9612 137.4344,-384.4192 28.8222,-289.27527 z"
     fill="#000000"
     fill-opacity="1"
     id="path22"
     style="fill:#ffffff;fill-opacity:1;stroke:#000000;stroke-width:48.59999847;stroke-miterlimit:4;stroke-dasharray:none;stroke-opacity:1" />
  <path
     style="opacity:0.93;fill:#ffffff;fill-opacity:1;stroke:#000000;stroke-width:48.4534;stroke-linejoin:round;stroke-miterlimit:4;stroke-dasharray:none;stroke-opacity:1;paint-order:markers fill stroke"
     id="path834"
     d="M 1456.4128,350.66818 1355.7209,525.07171 H 1154.337 l -100.6919,-174.40353 100.6919,-174.40353 201.3839,0 z"
     transform="matrix(0.94331238,0,0,0.91436721,59.51269,43.910683)" />
  <path
     style="opacity:0.93;fill:#ffffff;fill-opacity:1;stroke:#000000;stroke-width:48.4534;stroke-linejoin:round;stroke-miterlimit:4;stroke-dasharray:none;stroke-opacity:1;paint-order:markers fill stroke"
     id="path834-8"
     d="M 1456.4128,350.66818 1355.7209,525.07171 H 1154.337 l -100.6919,-174.40353 100.6919,-174.40353 201.3839,0 z"
     transform="matrix(0.94331238,0,0,0.91436721,344.46451,-115.55819)" />
  <path
     style="opacity:0.93;fill:#ffffff;fill-opacity:1;stroke:#000000;stroke-width:48.4534;stroke-linejoin:round;stroke-miterlimit:4;stroke-dasharray:none;stroke-opacity:1;paint-order:markers fill stroke"
     id="path834-8-3"
     d="M 1456.4128,350.66818 1355.7209,525.07171 H 1154.337 l -100.6919,-174.40353 100.6919,-174.40353 201.3839,0 z"
     transform="matrix(0.94331238,0,0,0.91436721,344.46451,203.37955)" />
</svg>
