<?xml version="1.0" encoding="UTF-8" standalone="no"?>
<svg
   xmlns:dc="http://purl.org/dc/elements/1.1/"
   xmlns:cc="http://creativecommons.org/ns#"
   xmlns:rdf="http://www.w3.org/1999/02/22-rdf-syntax-ns#"
   xmlns:svg="http://www.w3.org/2000/svg"
   xmlns="http://www.w3.org/2000/svg"
   xmlns:sodipodi="http://sodipodi.sourceforge.net/DTD/sodipodi-0.dtd"
   xmlns:inkscape="http://www.inkscape.org/namespaces/inkscape"
   version="1.1"
   width="3621.1821"
   height="2249.7"
   viewBox="0 0 3621.1821 2249.6999"
   id="svg25"
   sodipodi:docname="hive_logo.svg"
   inkscape:version="1.0.1 (3bc2e813f5, 2020-09-07)"
   inkscape:export-filename="C:\Users\leogc\Documents\hive_dash\src\assets\brand\hive_logo_bow.png"
   inkscape:export-xdpi="96"
   inkscape:export-ydpi="96">
  <metadata
     id="metadata31">
    <rdf:RDF>
      <cc:Work
         rdf:about="">
        <dc:format>image/svg+xml</dc:format>
        <dc:type
           rdf:resource="http://purl.org/dc/dcmitype/StillImage" />
        <dc:title />
      </cc:Work>
    </rdf:RDF>
  </metadata>
  <defs
     id="defs29" />
  <sodipodi:namedview
     pagecolor="#ffffff"
     bordercolor="#666666"
     borderopacity="1"
     objecttolerance="10"
     gridtolerance="10"
     guidetolerance="10"
     inkscape:pageopacity="0"
     inkscape:pageshadow="2"
     inkscape:window-width="1920"
     inkscape:window-height="1001"
     id="namedview27"
     showgrid="false"
     inkscape:zoom="0.17401456"
     inkscape:cx="1559.875"
     inkscape:cy="1601.7754"
     inkscape:window-x="-9"
     inkscape:window-y="-9"
     inkscape:window-maximized="1"
     inkscape:current-layer="svg25"
     inkscape:document-rotation="0"
     showguides="false" />
  <path
     d="m 1601.5082,335.83659 92.1355,-159.58835 -92.0303,-159.358978 -3.1075,-0.16794 -181.1525,-0.0519 -91.1865,159.578798 91.1865,159.57879 h 179.9223 z m -177.4919,-11.47972 -84.6384,-148.10863 84.6384,-148.108628 h 170.84 l 85.545,148.108628 -85.5136,148.10863 z"
     fill="#000000"
     fill-opacity="1"
     stroke-width="92.7061"
     stroke="#000000"
     stroke-linecap="square"
     stroke-linejoin="miter"
     id="path16"
     style="fill:none;fill-opacity:1;stroke-width:20;stroke-miterlimit:4;stroke-dasharray:none" />
  <path
     d="m 1338.4932,176.2537 92.1354,159.58835 -92.0317,159.36034 -3.1075,0.16657 -181.1524,0.0519 -91.1865,-159.57879 91.1865,-159.57742 h 179.9223 z m -177.4934,11.47973 -84.637,148.10862 84.637,148.10863 h 170.8401 l 85.5449,-148.10863 -85.5135,-148.10862 z"
     fill="#000000"
     fill-opacity="1"
     stroke-width="92.7061"
     stroke="#000000"
     stroke-linecap="square"
     stroke-linejoin="miter"
     id="path18"
     style="fill:none;fill-opacity:1;stroke-width:20;stroke-miterlimit:4;stroke-dasharray:none" />
  <path
     d="m 1601.5246,324.4579 92.1354,159.58835 -92.0303,159.35988 -3.1075,0.1669 -181.1524,0.052 -91.1865,-159.57878 91.1865,-159.57879 h 179.9223 z m -177.4919,11.47972 -84.6384,148.10863 84.6384,148.10888 h 170.84 l 85.545,-148.10888 -85.5136,-148.10863 z"
     fill="#000000"
     fill-opacity="1"
     stroke-width="92.7061"
     stroke="#000000"
     stroke-linecap="square"
     stroke-linejoin="miter"
     id="path20"
     style="fill:none;fill-opacity:1;stroke-width:20;stroke-miterlimit:4;stroke-dasharray:none" />
  <path
     d="m 401.68473,1844.3141 75.92618,-770.7607 H 675.58697 L 558.33898,2229.6999 H 942.75812 L 1087.8767,786.20063 511.25273,787.16173 559.30017,308.55996 H 76.858287 L 48.978181,593.02993 146.05338,593.99103 22.081115,1844.3141 Z m 1067.72747,-1.9224 106.6763,-1055.22997 h -383.458 L 1085.9543,1844.3141 Z m 725.5914,1.9224 393.0685,-1055.23027 -286.3923,-1.9221 -197.976,551.64187 -92.2601,-550.68087 -381.5365,0.9611 183.5607,1055.23027 z m 444.0037,-1057.15237 -104.7539,1055.22997 958.1636,0.9612 29.7916,-289.2745 h -576.6267 l 48.0529,-479.5638 h 193.1701 l -137.429,385.3804 383.458,0.9612 137.4344,-384.4192 28.8222,-289.27527 z"
     fill="#000000"
     fill-opacity="1"
     id="path22"
     style="fill:none;fill-opacity:1;stroke:#000000;stroke-width:48.59999847;stroke-miterlimit:4;stroke-dasharray:none;stroke-opacity:1" />
</svg>
